STARTFONT 2.1
COMMENT  
COMMENT  
COMMENT  
COMMENT  WARNING:  This bdf file was generated from a font server using
COMMENT  fstobdf.  The resulting font is subject to the same copyright,
COMMENT  license, and trademark restrictions as the original font.  The
COMMENT  authors and distributors of fstobdf disclaim all liability for
COMMENT  misuse of the program or its output.
COMMENT  
FONT -star division-starbats-medium-r-normal--8-80-75-75-p-0-stardivision-fontspecific
SIZE 8 75 75
FONTBOUNDINGBOX 8 11 0 -3
STARTPROPERTIES 60
FONT "-star division-starbats-medium-r-normal--8-80-75-75-p-0-stardivision-fontspecific"
FONT_TYPE "TrueType"
TECHNOLOGY "TrueType"
FOUNDRY ""
FAMILY_NAME "starbats"
WEIGHT_NAME "medium"
SLANT "r"
SETWIDTH_NAME "normal"
ADD_STYLE_NAME ""
PIXEL_SIZE 8
POINT_SIZE 80
RESOLUTION_X 75
RESOLUTION_Y 75
SPACING "p"
AVERAGE_WIDTH 40
CHARSET_REGISTRY "stardivision"
CHARSET_ENCODING "fontspecific"
AVG_LOWERCASE_WIDTH 7
RAW_AVG_LOWERCASE_WIDTH 831
SUBSCRIPT_X 0
SUBSCRIPT_Y 1
SUBSCRIPT_SIZE 1
RAW_SUBSCRIPT_X 0
RAW_SUBSCRIPT_Y 211
RAW_SUBSCRIPT_SIZE 180
SUPERSCRIPT_X 0
SUPERSCRIPT_Y 4
SUPERSCRIPT_SIZE 1
RAW_SUPERSCRIPT_X 0
RAW_SUPERSCRIPT_Y 539
RAW_SUPERSCRIPT_SIZE 180
STRIKEOUT_ASCENT 3
STRIKEOUT_DESCENT -1
RAW_STRIKEOUT_ASCENT 308
RAW_STRIKEOUT_DESCENT -258
RELATIVE_SETWIDTH 50
RELATIVE_WEIGHT 40
_GALLIUM_PANOSE "2 11 5 0 0 0 0 0 0 0"
UNDERLINE_POSITION 0
UNDERLINE_THICKNESS 0
RAW_UNDERLINE_POSITION 0
RAW_UNDERLINE_THICKNESS 0
ITALIC_ANGLE 0
NORM_SPACE 2
RAW_NORM_SPACE 280
CAP_HEIGHT 5
RAW_CAP_HEIGHT 557
X_HEIGHT 4
RAW_X_HEIGHT 520
RAW_PIXEL_SIZE 1000
RAW_POINT_SIZE 9636
FONT_ASCENT 7
FONT_DESCENT 2
RAW_ASCENT 898
RAW_DESCENT 212
RAW_AVERAGE_WIDTH 6513
COPYRIGHT ""
FACE_NAME "StarB TT"
NOTICE ""
DEFAULT_CHAR 0
ENDPROPERTIES
CHARS 224
STARTCHAR space
ENCODING 32
SWIDTH 240 0
DWIDTH 2 0
BBX 0 0 0 0
ATTRIBUTES 0117
BITMAP
ENDCHAR
STARTCHAR exclam
ENCODING 33
SWIDTH 840 0
DWIDTH 7 0
BBX 6 6 0 0
ATTRIBUTES 034c
BITMAP
70
48
84
cc
74
78
ENDCHAR
STARTCHAR quotedbl
ENCODING 34
SWIDTH 720 0
DWIDTH 6 0
BBX 5 4 0 1
ATTRIBUTES 02ec
BITMAP
70
f8
f8
70
ENDCHAR
STARTCHAR numbersign
ENCODING 35
SWIDTH 960 0
DWIDTH 8 0
BBX 7 6 0 0
ATTRIBUTES 03b8
BITMAP
78
84
82
86
84
78
ENDCHAR
STARTCHAR dollar
ENCODING 36
SWIDTH 720 0
DWIDTH 6 0
BBX 5 4 0 1
ATTRIBUTES 02ec
BITMAP
f8
f8
f8
f8
ENDCHAR
STARTCHAR percent
ENCODING 37
SWIDTH 840 0
DWIDTH 7 0
BBX 6 6 0 0
ATTRIBUTES 037c
BITMAP
fc
84
84
84
84
fc
ENDCHAR
STARTCHAR ampersand
ENCODING 38
SWIDTH 840 0
DWIDTH 7 0
BBX 6 6 0 0
ATTRIBUTES 037c
BITMAP
fc
84
84
84
84
fc
ENDCHAR
STARTCHAR apostrophe
ENCODING 39
SWIDTH 840 0
DWIDTH 7 0
BBX 6 6 0 0
ATTRIBUTES 037c
BITMAP
fc
84
84
84
84
fc
ENDCHAR
STARTCHAR parenleft
ENCODING 40
SWIDTH 840 0
DWIDTH 7 0
BBX 6 6 0 0
ATTRIBUTES 037c
BITMAP
fc
84
84
84
84
fc
ENDCHAR
STARTCHAR parenright
ENCODING 41
SWIDTH 480 0
DWIDTH 4 0
BBX 2 4 1 1
ATTRIBUTES 01cb
BITMAP
40
c0
c0
40
ENDCHAR
STARTCHAR asterisk
ENCODING 42
SWIDTH 720 0
DWIDTH 6 0
BBX 5 6 0 0
ATTRIBUTES 02ec
BITMAP
20
70
f8
f8
70
20
ENDCHAR
STARTCHAR plus
ENCODING 43
SWIDTH 960 0
DWIDTH 8 0
BBX 7 6 0 0
ATTRIBUTES 03db
BITMAP
10
38
7c
7c
38
10
ENDCHAR
STARTCHAR comma
ENCODING 44
SWIDTH 840 0
DWIDTH 7 0
BBX 6 6 0 0
ATTRIBUTES 037c
BITMAP
10
30
4c
4c
30
10
ENDCHAR
STARTCHAR minus
ENCODING 45
SWIDTH 600 0
DWIDTH 5 0
BBX 3 4 1 1
ATTRIBUTES 0244
BITMAP
40
e0
e0
40
ENDCHAR
STARTCHAR period
ENCODING 46
SWIDTH 960 0
DWIDTH 8 0
BBX 7 6 0 0
ATTRIBUTES 03b8
BITMAP
78
84
86
82
84
78
ENDCHAR
STARTCHAR slash
ENCODING 47
SWIDTH 840 0
DWIDTH 7 0
BBX 5 6 1 0
ATTRIBUTES 031b
BITMAP
80
e0
50
70
40
80
ENDCHAR
STARTCHAR 0
ENCODING 48
SWIDTH 960 0
DWIDTH 8 0
BBX 7 6 0 0
ATTRIBUTES 03d3
BITMAP
10
08
04
04
08
10
ENDCHAR
STARTCHAR 1
ENCODING 49
SWIDTH 1080 0
DWIDTH 9 0
BBX 7 6 1 0
ATTRIBUTES 042b
BITMAP
18
1c
fe
fe
1c
18
ENDCHAR
STARTCHAR 2
ENCODING 50
SWIDTH 840 0
DWIDTH 7 0
BBX 6 5 0 1
ATTRIBUTES 0314
BITMAP
08
10
50
60
40
ENDCHAR
STARTCHAR 3
ENCODING 51
SWIDTH 840 0
DWIDTH 7 0
BBX 6 6 0 0
ATTRIBUTES 037c
BITMAP
fc
84
ac
94
ac
fc
ENDCHAR
STARTCHAR 4
ENCODING 52
SWIDTH 840 0
DWIDTH 7 0
BBX 6 6 0 0
ATTRIBUTES 037c
BITMAP
fc
8c
d4
e4
a4
fc
ENDCHAR
STARTCHAR 5
ENCODING 53
SWIDTH 840 0
DWIDTH 7 0
BBX 6 6 0 0
ATTRIBUTES 037c
BITMAP
30
78
f4
04
f8
70
ENDCHAR
STARTCHAR 6
ENCODING 54
SWIDTH 720 0
DWIDTH 6 0
BBX 6 3 0 1
ATTRIBUTES 0303
BITMAP
30
f0
f0
ENDCHAR
STARTCHAR 7
ENCODING 55
SWIDTH 720 0
DWIDTH 6 0
BBX 5 3 0 1
ATTRIBUTES 029f
BITMAP
60
f0
f8
ENDCHAR
STARTCHAR 8
ENCODING 56
SWIDTH 720 0
DWIDTH 6 0
BBX 6 4 0 0
ATTRIBUTES 02e4
BITMAP
e0
f8
6c
1c
ENDCHAR
STARTCHAR 9
ENCODING 57
SWIDTH 600 0
DWIDTH 5 0
BBX 4 4 0 0
ATTRIBUTES 0247
BITMAP
10
20
c0
80
ENDCHAR
STARTCHAR colon
ENCODING 58
SWIDTH 600 0
DWIDTH 5 0
BBX 5 4 0 0
ATTRIBUTES 028f
BITMAP
08
90
e0
c0
ENDCHAR
STARTCHAR semicolon
ENCODING 59
SWIDTH 720 0
DWIDTH 6 0
BBX 5 5 0 1
ATTRIBUTES 02d8
BITMAP
70
f8
f8
f8
70
ENDCHAR
STARTCHAR less
ENCODING 60
SWIDTH 600 0
DWIDTH 5 0
BBX 5 4 0 0
ATTRIBUTES 027c
BITMAP
f0
88
88
f0
ENDCHAR
STARTCHAR equal
ENCODING 61
SWIDTH 600 0
DWIDTH 5 0
BBX 4 4 0 0
ATTRIBUTES 0230
BITMAP
f0
f0
f0
f0
ENDCHAR
STARTCHAR greater
ENCODING 62
SWIDTH 600 0
DWIDTH 5 0
BBX 4 4 0 0
ATTRIBUTES 0227
BITMAP
e0
90
90
f0
ENDCHAR
STARTCHAR question
ENCODING 63
SWIDTH 600 0
DWIDTH 5 0
BBX 4 4 0 0
ATTRIBUTES 0230
BITMAP
f0
90
90
e0
ENDCHAR
STARTCHAR at
ENCODING 64
SWIDTH 600 0
DWIDTH 5 0
BBX 4 4 0 0
ATTRIBUTES 0227
BITMAP
f0
90
90
f0
ENDCHAR
STARTCHAR A
ENCODING 65
SWIDTH 720 0
DWIDTH 6 0
BBX 4 5 1 1
ATTRIBUTES 02dc
BITMAP
20
60
f0
60
20
ENDCHAR
STARTCHAR B
ENCODING 66
SWIDTH 600 0
DWIDTH 5 0
BBX 5 4 0 0
ATTRIBUTES 0240
BITMAP
20
d8
68
20
ENDCHAR
STARTCHAR C
ENCODING 67
SWIDTH 480 0
DWIDTH 4 0
BBX 3 4 0 0
ATTRIBUTES 01a7
BITMAP
40
e0
e0
40
ENDCHAR
STARTCHAR D
ENCODING 68
SWIDTH 600 0
DWIDTH 5 0
BBX 5 4 0 0
ATTRIBUTES 0237
BITMAP
20
f8
20
20
ENDCHAR
STARTCHAR E
ENCODING 69
SWIDTH 600 0
DWIDTH 5 0
BBX 5 4 0 0
ATTRIBUTES 0240
BITMAP
20
f8
20
20
ENDCHAR
STARTCHAR F
ENCODING 70
SWIDTH 600 0
DWIDTH 5 0
BBX 5 4 0 0
ATTRIBUTES 0237
BITMAP
20
f8
a8
20
ENDCHAR
STARTCHAR G
ENCODING 71
SWIDTH 600 0
DWIDTH 5 0
BBX 5 4 0 0
ATTRIBUTES 0240
BITMAP
20
f8
60
20
ENDCHAR
STARTCHAR H
ENCODING 72
SWIDTH 600 0
DWIDTH 5 0
BBX 4 4 0 0
ATTRIBUTES 021f
BITMAP
60
60
60
20
ENDCHAR
STARTCHAR I
ENCODING 73
SWIDTH 600 0
DWIDTH 5 0
BBX 5 4 0 0
ATTRIBUTES 0240
BITMAP
f0
20
70
20
ENDCHAR
STARTCHAR J
ENCODING 74
SWIDTH 600 0
DWIDTH 5 0
BBX 5 4 0 0
ATTRIBUTES 0240
BITMAP
78
70
70
70
ENDCHAR
STARTCHAR K
ENCODING 75
SWIDTH 480 0
DWIDTH 4 0
BBX 4 4 0 0
ATTRIBUTES 01fb
BITMAP
20
60
a0
20
ENDCHAR
STARTCHAR L
ENCODING 76
SWIDTH 600 0
DWIDTH 5 0
BBX 5 4 0 0
ATTRIBUTES 0237
BITMAP
30
70
f8
50
ENDCHAR
STARTCHAR M
ENCODING 77
SWIDTH 600 0
DWIDTH 5 0
BBX 5 4 0 0
ATTRIBUTES 0240
BITMAP
20
70
f8
50
ENDCHAR
STARTCHAR N
ENCODING 78
SWIDTH 600 0
DWIDTH 5 0
BBX 5 5 0 0
ATTRIBUTES 025c
BITMAP
20
70
70
70
70
ENDCHAR
STARTCHAR O
ENCODING 79
SWIDTH 480 0
DWIDTH 4 0
BBX 4 5 0 -1
ATTRIBUTES 01df
BITMAP
50
20
60
90
80
ENDCHAR
STARTCHAR P
ENCODING 80
SWIDTH 480 0
DWIDTH 4 0
BBX 4 4 0 0
ATTRIBUTES 0204
BITMAP
d0
60
e0
a0
ENDCHAR
STARTCHAR Q
ENCODING 81
SWIDTH 600 0
DWIDTH 5 0
BBX 4 4 0 0
ATTRIBUTES 0247
BITMAP
60
b0
b0
60
ENDCHAR
STARTCHAR R
ENCODING 82
SWIDTH 600 0
DWIDTH 5 0
BBX 4 4 0 0
ATTRIBUTES 0247
BITMAP
60
f0
f0
60
ENDCHAR
STARTCHAR S
ENCODING 83
SWIDTH 600 0
DWIDTH 5 0
BBX 4 4 0 0
ATTRIBUTES 0247
BITMAP
20
70
60
60
ENDCHAR
STARTCHAR T
ENCODING 84
SWIDTH 600 0
DWIDTH 5 0
BBX 5 4 0 0
ATTRIBUTES 0237
BITMAP
60
98
f8
20
ENDCHAR
STARTCHAR U
ENCODING 85
SWIDTH 600 0
DWIDTH 5 0
BBX 5 4 0 0
ATTRIBUTES 0273
BITMAP
20
d8
60
50
ENDCHAR
STARTCHAR V
ENCODING 86
SWIDTH 600 0
DWIDTH 5 0
BBX 5 4 0 0
ATTRIBUTES 026c
BITMAP
60
f8
70
f0
ENDCHAR
STARTCHAR W
ENCODING 87
SWIDTH 600 0
DWIDTH 5 0
BBX 5 4 0 0
ATTRIBUTES 024f
BITMAP
70
f8
70
f0
ENDCHAR
STARTCHAR X
ENCODING 88
SWIDTH 600 0
DWIDTH 5 0
BBX 5 4 0 0
ATTRIBUTES 024f
BITMAP
70
b8
70
78
ENDCHAR
STARTCHAR Y
ENCODING 89
SWIDTH 600 0
DWIDTH 5 0
BBX 5 4 0 0
ATTRIBUTES 025f
BITMAP
60
70
70
f8
ENDCHAR
STARTCHAR Z
ENCODING 90
SWIDTH 720 0
DWIDTH 6 0
BBX 6 5 0 0
ATTRIBUTES 02a8
BITMAP
10
70
4c
48
f8
ENDCHAR
STARTCHAR bracketleft
ENCODING 91
SWIDTH 240 0
DWIDTH 2 0
BBX 2 8 0 -2
ATTRIBUTES 0117
BITMAP
c0
80
80
80
80
80
80
c0
ENDCHAR
STARTCHAR backslash
ENCODING 92
SWIDTH 840 0
DWIDTH 7 0
BBX 5 6 1 0
ATTRIBUTES 037c
BITMAP
70
c8
a8
a8
c8
70
ENDCHAR
STARTCHAR bracketright
ENCODING 93
SWIDTH 840 0
DWIDTH 7 0
BBX 5 6 1 0
ATTRIBUTES 037c
BITMAP
70
98
d8
d8
d8
70
ENDCHAR
STARTCHAR asciicircum
ENCODING 94
SWIDTH 840 0
DWIDTH 7 0
BBX 5 6 1 0
ATTRIBUTES 037c
BITMAP
70
88
e8
d8
88
70
ENDCHAR
STARTCHAR underscore
ENCODING 95
SWIDTH 840 0
DWIDTH 7 0
BBX 5 6 1 0
ATTRIBUTES 037c
BITMAP
70
c8
d8
e8
d8
70
ENDCHAR
STARTCHAR grave
ENCODING 96
SWIDTH 840 0
DWIDTH 7 0
BBX 5 6 1 0
ATTRIBUTES 037c
BITMAP
70
e8
a8
88
e8
70
ENDCHAR
STARTCHAR a
ENCODING 97
SWIDTH 840 0
DWIDTH 7 0
BBX 5 6 1 0
ATTRIBUTES 037c
BITMAP
70
c8
c8
e8
c8
70
ENDCHAR
STARTCHAR b
ENCODING 98
SWIDTH 840 0
DWIDTH 7 0
BBX 5 6 1 0
ATTRIBUTES 037c
BITMAP
70
c8
b8
a8
88
70
ENDCHAR
STARTCHAR c
ENCODING 99
SWIDTH 840 0
DWIDTH 7 0
BBX 6 6 0 0
ATTRIBUTES 037c
BITMAP
30
48
ec
fc
58
30
ENDCHAR
STARTCHAR d
ENCODING 100
SWIDTH 840 0
DWIDTH 7 0
BBX 5 6 1 0
ATTRIBUTES 037c
BITMAP
70
c8
b8
a8
88
70
ENDCHAR
STARTCHAR e
ENCODING 101
SWIDTH 840 0
DWIDTH 7 0
BBX 5 6 1 0
ATTRIBUTES 037c
BITMAP
70
88
a8
e8
98
70
ENDCHAR
STARTCHAR f
ENCODING 102
SWIDTH 840 0
DWIDTH 7 0
BBX 6 6 1 0
ATTRIBUTES 037c
BITMAP
f0
a8
b4
b4
a8
70
ENDCHAR
STARTCHAR g
ENCODING 103
SWIDTH 840 0
DWIDTH 7 0
BBX 5 6 1 0
ATTRIBUTES 037c
BITMAP
70
a8
b8
b8
a8
70
ENDCHAR
STARTCHAR h
ENCODING 104
SWIDTH 840 0
DWIDTH 7 0
BBX 6 6 0 0
ATTRIBUTES 037c
BITMAP
30
e8
a4
94
58
70
ENDCHAR
STARTCHAR i
ENCODING 105
SWIDTH 840 0
DWIDTH 7 0
BBX 6 6 0 0
ATTRIBUTES 037c
BITMAP
78
74
94
94
68
70
ENDCHAR
STARTCHAR j
ENCODING 106
SWIDTH 840 0
DWIDTH 7 0
BBX 5 6 1 0
ATTRIBUTES 037c
BITMAP
70
a8
a8
a8
a8
70
ENDCHAR
STARTCHAR k
ENCODING 107
SWIDTH 840 0
DWIDTH 7 0
BBX 5 6 1 0
ATTRIBUTES 037c
BITMAP
70
a8
e8
e8
a8
70
ENDCHAR
STARTCHAR l
ENCODING 108
SWIDTH 840 0
DWIDTH 7 0
BBX 5 6 1 0
ATTRIBUTES 037c
BITMAP
70
a8
a8
a8
a8
70
ENDCHAR
STARTCHAR m
ENCODING 109
SWIDTH 840 0
DWIDTH 7 0
BBX 5 6 1 0
ATTRIBUTES 037c
BITMAP
70
a8
a8
f8
a8
70
ENDCHAR
STARTCHAR n
ENCODING 110
SWIDTH 840 0
DWIDTH 7 0
BBX 6 6 0 0
ATTRIBUTES 037c
BITMAP
78
54
94
94
68
70
ENDCHAR
STARTCHAR o
ENCODING 111
SWIDTH 840 0
DWIDTH 7 0
BBX 5 6 1 0
ATTRIBUTES 037c
BITMAP
70
f8
a8
b8
b8
70
ENDCHAR
STARTCHAR p
ENCODING 112
SWIDTH 840 0
DWIDTH 7 0
BBX 5 6 1 0
ATTRIBUTES 037c
BITMAP
70
a8
b8
a8
98
70
ENDCHAR
STARTCHAR q
ENCODING 113
SWIDTH 840 0
DWIDTH 7 0
BBX 5 6 1 0
ATTRIBUTES 037c
BITMAP
70
b8
b8
b8
b8
70
ENDCHAR
STARTCHAR r
ENCODING 114
SWIDTH 1080 0
DWIDTH 9 0
BBX 8 7 0 0
ATTRIBUTES 0410
BITMAP
ff
bd
81
81
81
81
ff
ENDCHAR
STARTCHAR s
ENCODING 115
SWIDTH 1080 0
DWIDTH 9 0
BBX 8 8 0 0
ATTRIBUTES 042f
BITMAP
00
ff
87
ff
af
ff
ff
ff
ENDCHAR
STARTCHAR t
ENCODING 116
SWIDTH 1080 0
DWIDTH 9 0
BBX 8 6 0 1
ATTRIBUTES 041a
BITMAP
3c
ff
d7
ff
24
7e
ENDCHAR
STARTCHAR u
ENCODING 117
SWIDTH 600 0
DWIDTH 5 0
BBX 4 4 0 0
ATTRIBUTES 022c
BITMAP
90
90
90
70
ENDCHAR
STARTCHAR v
ENCODING 118
SWIDTH 480 0
DWIDTH 4 0
BBX 4 4 0 0
ATTRIBUTES 01f4
BITMAP
90
50
60
60
ENDCHAR
STARTCHAR w
ENCODING 119
SWIDTH 720 0
DWIDTH 6 0
BBX 6 4 0 0
ATTRIBUTES 02d4
BITMAP
b4
74
78
48
ENDCHAR
STARTCHAR x
ENCODING 120
SWIDTH 480 0
DWIDTH 4 0
BBX 4 4 0 0
ATTRIBUTES 01f4
BITMAP
90
60
60
90
ENDCHAR
STARTCHAR y
ENCODING 121
SWIDTH 480 0
DWIDTH 4 0
BBX 4 6 0 -2
ATTRIBUTES 01f4
BITMAP
90
50
60
60
40
c0
ENDCHAR
STARTCHAR z
ENCODING 122
SWIDTH 480 0
DWIDTH 4 0
BBX 4 4 0 0
ATTRIBUTES 01f4
BITMAP
10
20
40
f0
ENDCHAR
STARTCHAR braceleft
ENCODING 123
SWIDTH 360 0
DWIDTH 3 0
BBX 3 8 0 -2
ATTRIBUTES 014f
BITMAP
60
40
40
80
40
40
40
20
ENDCHAR
STARTCHAR bar
ENCODING 124
SWIDTH 240 0
DWIDTH 2 0
BBX 1 8 0 -2
ATTRIBUTES 0103
BITMAP
80
80
80
80
80
80
80
80
ENDCHAR
STARTCHAR braceright
ENCODING 125
SWIDTH 360 0
DWIDTH 3 0
BBX 3 8 0 -2
ATTRIBUTES 014f
BITMAP
c0
40
40
20
40
40
40
80
ENDCHAR
STARTCHAR asciitilde
ENCODING 126
SWIDTH 600 0
DWIDTH 5 0
BBX 4 2 0 2
ATTRIBUTES 0247
BITMAP
d0
b0
ENDCHAR
STARTCHAR C000177
ENCODING 127
SWIDTH 480 0
DWIDTH 4 0
BBX 4 4 0 0
ATTRIBUTES 01f7
BITMAP
f0
90
90
f0
ENDCHAR
STARTCHAR C000200
ENCODING 128
SWIDTH 720 0
DWIDTH 6 0
BBX 4 6 1 0
ATTRIBUTES 02ee
BITMAP
f0
90
90
90
90
f0
ENDCHAR
STARTCHAR C000201
ENCODING 129
SWIDTH 720 0
DWIDTH 6 0
BBX 4 6 1 0
ATTRIBUTES 02ee
BITMAP
f0
90
90
90
90
f0
ENDCHAR
STARTCHAR C000202
ENCODING 130
SWIDTH 720 0
DWIDTH 6 0
BBX 4 6 1 0
ATTRIBUTES 02ee
BITMAP
f0
90
90
90
90
f0
ENDCHAR
STARTCHAR C000203
ENCODING 131
SWIDTH 720 0
DWIDTH 6 0
BBX 4 6 1 0
ATTRIBUTES 02ee
BITMAP
f0
90
90
90
90
f0
ENDCHAR
STARTCHAR C000204
ENCODING 132
SWIDTH 720 0
DWIDTH 6 0
BBX 4 6 1 0
ATTRIBUTES 02ee
BITMAP
f0
90
90
90
90
f0
ENDCHAR
STARTCHAR C000205
ENCODING 133
SWIDTH 720 0
DWIDTH 6 0
BBX 4 6 1 0
ATTRIBUTES 02ee
BITMAP
f0
90
90
90
90
f0
ENDCHAR
STARTCHAR C000206
ENCODING 134
SWIDTH 720 0
DWIDTH 6 0
BBX 4 6 1 0
ATTRIBUTES 02ee
BITMAP
f0
90
90
90
90
f0
ENDCHAR
STARTCHAR C000207
ENCODING 135
SWIDTH 720 0
DWIDTH 6 0
BBX 4 6 1 0
ATTRIBUTES 02ee
BITMAP
f0
90
90
90
90
f0
ENDCHAR
STARTCHAR C000210
ENCODING 136
SWIDTH 720 0
DWIDTH 6 0
BBX 4 6 1 0
ATTRIBUTES 02ee
BITMAP
f0
90
90
90
90
f0
ENDCHAR
STARTCHAR C000211
ENCODING 137
SWIDTH 720 0
DWIDTH 6 0
BBX 4 6 1 0
ATTRIBUTES 02ee
BITMAP
f0
90
90
90
90
f0
ENDCHAR
STARTCHAR C000212
ENCODING 138
SWIDTH 720 0
DWIDTH 6 0
BBX 4 6 1 0
ATTRIBUTES 02ee
BITMAP
f0
90
90
90
90
f0
ENDCHAR
STARTCHAR C000213
ENCODING 139
SWIDTH 720 0
DWIDTH 6 0
BBX 4 6 1 0
ATTRIBUTES 02ee
BITMAP
f0
90
90
90
90
f0
ENDCHAR
STARTCHAR C000214
ENCODING 140
SWIDTH 720 0
DWIDTH 6 0
BBX 4 6 1 0
ATTRIBUTES 02ee
BITMAP
f0
90
90
90
90
f0
ENDCHAR
STARTCHAR C000215
ENCODING 141
SWIDTH 720 0
DWIDTH 6 0
BBX 4 6 1 0
ATTRIBUTES 02ee
BITMAP
f0
90
90
90
90
f0
ENDCHAR
STARTCHAR C000216
ENCODING 142
SWIDTH 720 0
DWIDTH 6 0
BBX 4 6 1 0
ATTRIBUTES 02ee
BITMAP
f0
90
90
90
90
f0
ENDCHAR
STARTCHAR C000217
ENCODING 143
SWIDTH 720 0
DWIDTH 6 0
BBX 4 6 1 0
ATTRIBUTES 02ee
BITMAP
f0
90
90
90
90
f0
ENDCHAR
STARTCHAR C000220
ENCODING 144
SWIDTH 720 0
DWIDTH 6 0
BBX 4 6 1 0
ATTRIBUTES 02ee
BITMAP
f0
90
90
90
90
f0
ENDCHAR
STARTCHAR C000221
ENCODING 145
SWIDTH 720 0
DWIDTH 6 0
BBX 4 6 1 0
ATTRIBUTES 02ee
BITMAP
f0
90
90
90
90
f0
ENDCHAR
STARTCHAR C000222
ENCODING 146
SWIDTH 720 0
DWIDTH 6 0
BBX 4 6 1 0
ATTRIBUTES 02ee
BITMAP
f0
90
90
90
90
f0
ENDCHAR
STARTCHAR C000223
ENCODING 147
SWIDTH 720 0
DWIDTH 6 0
BBX 4 6 1 0
ATTRIBUTES 02ee
BITMAP
f0
90
90
90
90
f0
ENDCHAR
STARTCHAR C000224
ENCODING 148
SWIDTH 720 0
DWIDTH 6 0
BBX 4 6 1 0
ATTRIBUTES 02ee
BITMAP
f0
90
90
90
90
f0
ENDCHAR
STARTCHAR C000225
ENCODING 149
SWIDTH 720 0
DWIDTH 6 0
BBX 4 6 1 0
ATTRIBUTES 02ee
BITMAP
f0
90
90
90
90
f0
ENDCHAR
STARTCHAR C000226
ENCODING 150
SWIDTH 720 0
DWIDTH 6 0
BBX 4 6 1 0
ATTRIBUTES 02ee
BITMAP
f0
90
90
90
90
f0
ENDCHAR
STARTCHAR C000227
ENCODING 151
SWIDTH 720 0
DWIDTH 6 0
BBX 4 6 1 0
ATTRIBUTES 02ee
BITMAP
f0
90
90
90
90
f0
ENDCHAR
STARTCHAR C000230
ENCODING 152
SWIDTH 720 0
DWIDTH 6 0
BBX 4 6 1 0
ATTRIBUTES 02ee
BITMAP
f0
90
90
90
90
f0
ENDCHAR
STARTCHAR C000231
ENCODING 153
SWIDTH 720 0
DWIDTH 6 0
BBX 4 6 1 0
ATTRIBUTES 02ee
BITMAP
f0
90
90
90
90
f0
ENDCHAR
STARTCHAR C000232
ENCODING 154
SWIDTH 720 0
DWIDTH 6 0
BBX 4 6 1 0
ATTRIBUTES 02ee
BITMAP
f0
90
90
90
90
f0
ENDCHAR
STARTCHAR C000233
ENCODING 155
SWIDTH 720 0
DWIDTH 6 0
BBX 4 6 1 0
ATTRIBUTES 02ee
BITMAP
f0
90
90
90
90
f0
ENDCHAR
STARTCHAR C000234
ENCODING 156
SWIDTH 720 0
DWIDTH 6 0
BBX 4 6 1 0
ATTRIBUTES 02ee
BITMAP
f0
90
90
90
90
f0
ENDCHAR
STARTCHAR C000235
ENCODING 157
SWIDTH 720 0
DWIDTH 6 0
BBX 4 6 1 0
ATTRIBUTES 02ee
BITMAP
f0
90
90
90
90
f0
ENDCHAR
STARTCHAR C000236
ENCODING 158
SWIDTH 720 0
DWIDTH 6 0
BBX 4 6 1 0
ATTRIBUTES 02ee
BITMAP
f0
90
90
90
90
f0
ENDCHAR
STARTCHAR C000237
ENCODING 159
SWIDTH 720 0
DWIDTH 6 0
BBX 4 6 1 0
ATTRIBUTES 02ee
BITMAP
f0
90
90
90
90
f0
ENDCHAR
STARTCHAR nobreakspace
ENCODING 160
SWIDTH 240 0
DWIDTH 2 0
BBX 0 0 0 0
ATTRIBUTES 0117
BITMAP
ENDCHAR
STARTCHAR exclamdown
ENCODING 161
SWIDTH 360 0
DWIDTH 3 0
BBX 1 6 1 -2
ATTRIBUTES 014c
BITMAP
00
80
80
80
80
80
ENDCHAR
STARTCHAR cent
ENCODING 162
SWIDTH 600 0
DWIDTH 5 0
BBX 4 8 0 -2
ATTRIBUTES 022c
BITMAP
10
10
f0
a0
b0
60
40
40
ENDCHAR
STARTCHAR sterling
ENCODING 163
SWIDTH 600 0
DWIDTH 5 0
BBX 4 6 0 0
ATTRIBUTES 022c
BITMAP
60
90
80
e0
40
f0
ENDCHAR
STARTCHAR currency
ENCODING 164
SWIDTH 600 0
DWIDTH 5 0
BBX 4 4 0 1
ATTRIBUTES 022c
BITMAP
f0
90
90
f0
ENDCHAR
STARTCHAR yen
ENCODING 165
SWIDTH 600 0
DWIDTH 5 0
BBX 4 6 0 0
ATTRIBUTES 022c
BITMAP
90
60
f0
20
f0
20
ENDCHAR
STARTCHAR brokenbar
ENCODING 166
SWIDTH 240 0
DWIDTH 2 0
BBX 1 8 0 -2
ATTRIBUTES 0103
BITMAP
80
80
80
00
80
80
80
80
ENDCHAR
STARTCHAR section
ENCODING 167
SWIDTH 600 0
DWIDTH 5 0
BBX 4 8 0 -2
ATTRIBUTES 022c
BITMAP
60
90
60
90
50
20
90
60
ENDCHAR
STARTCHAR diaeresis
ENCODING 168
SWIDTH 360 0
DWIDTH 3 0
BBX 3 1 0 5
ATTRIBUTES 014c
BITMAP
a0
ENDCHAR
STARTCHAR copyright
ENCODING 169
SWIDTH 720 0
DWIDTH 6 0
BBX 7 8 -1 -1
ATTRIBUTES 02df
BITMAP
10
6c
5a
62
62
5a
7c
00
ENDCHAR
STARTCHAR ordfeminine
ENCODING 170
SWIDTH 360 0
DWIDTH 3 0
BBX 3 2 0 4
ATTRIBUTES 0174
BITMAP
e0
20
ENDCHAR
STARTCHAR guillemotleft
ENCODING 171
SWIDTH 600 0
DWIDTH 5 0
BBX 4 4 0 0
ATTRIBUTES 022c
BITMAP
50
a0
60
50
ENDCHAR
STARTCHAR notsign
ENCODING 172
SWIDTH 600 0
DWIDTH 5 0
BBX 4 2 0 2
ATTRIBUTES 0247
BITMAP
f0
10
ENDCHAR
STARTCHAR hyphen
ENCODING 173
SWIDTH 360 0
DWIDTH 3 0
BBX 3 1 0 2
ATTRIBUTES 014c
BITMAP
e0
ENDCHAR
STARTCHAR registered
ENCODING 174
SWIDTH 720 0
DWIDTH 6 0
BBX 5 6 1 0
ATTRIBUTES 02df
BITMAP
30
48
70
70
70
78
ENDCHAR
STARTCHAR macron
ENCODING 175
SWIDTH 600 0
DWIDTH 5 0
BBX 5 1 0 6
ATTRIBUTES 0227
BITMAP
f8
ENDCHAR
STARTCHAR degree
ENCODING 176
SWIDTH 360 0
DWIDTH 3 0
BBX 2 1 0 4
ATTRIBUTES 018f
BITMAP
c0
ENDCHAR
STARTCHAR plusminus
ENCODING 177
SWIDTH 600 0
DWIDTH 5 0
BBX 4 5 0 0
ATTRIBUTES 0223
BITMAP
20
20
20
20
00
ENDCHAR
STARTCHAR twosuperior
ENCODING 178
SWIDTH 360 0
DWIDTH 3 0
BBX 3 3 0 3
ATTRIBUTES 014c
BITMAP
e0
60
80
ENDCHAR
STARTCHAR threesuperior
ENCODING 179
SWIDTH 360 0
DWIDTH 3 0
BBX 3 3 0 3
ATTRIBUTES 014c
BITMAP
e0
40
e0
ENDCHAR
STARTCHAR acute
ENCODING 180
SWIDTH 360 0
DWIDTH 3 0
BBX 2 1 0 5
ATTRIBUTES 014c
BITMAP
c0
ENDCHAR
STARTCHAR mu
ENCODING 181
SWIDTH 600 0
DWIDTH 5 0
BBX 4 6 0 -2
ATTRIBUTES 0240
BITMAP
90
90
90
f0
80
80
ENDCHAR
STARTCHAR paragraph
ENCODING 182
SWIDTH 480 0
DWIDTH 4 0
BBX 4 8 0 -2
ATTRIBUTES 0218
BITMAP
70
d0
d0
50
50
50
50
50
ENDCHAR
STARTCHAR periodcentered
ENCODING 183
SWIDTH 240 0
DWIDTH 2 0
BBX 1 0 0 3
ATTRIBUTES 0117
BITMAP
ENDCHAR
STARTCHAR cedilla
ENCODING 184
SWIDTH 360 0
DWIDTH 3 0
BBX 2 2 0 -2
ATTRIBUTES 014c
BITMAP
40
80
ENDCHAR
STARTCHAR onesuperior
ENCODING 185
SWIDTH 480 0
DWIDTH 4 0
BBX 4 4 0 0
ATTRIBUTES 01f7
BITMAP
f0
90
90
f0
ENDCHAR
STARTCHAR masculine
ENCODING 186
SWIDTH 360 0
DWIDTH 3 0
BBX 4 3 -1 3
ATTRIBUTES 016b
BITMAP
40
f0
20
ENDCHAR
STARTCHAR guillemotright
ENCODING 187
SWIDTH 600 0
DWIDTH 5 0
BBX 4 4 0 0
ATTRIBUTES 022c
BITMAP
a0
50
50
a0
ENDCHAR
STARTCHAR onequarter
ENCODING 188
SWIDTH 840 0
DWIDTH 7 0
BBX 6 6 0 0
ATTRIBUTES 0343
BITMAP
88
88
50
24
2c
44
ENDCHAR
STARTCHAR onehalf
ENCODING 189
SWIDTH 840 0
DWIDTH 7 0
BBX 6 7 0 -1
ATTRIBUTES 0343
BITMAP
88
88
50
60
24
44
40
ENDCHAR
STARTCHAR threequarters
ENCODING 190
SWIDTH 840 0
DWIDTH 7 0
BBX 7 6 0 0
ATTRIBUTES 0343
BITMAP
c4
48
c8
12
2e
42
ENDCHAR
STARTCHAR questiondown
ENCODING 191
SWIDTH 600 0
DWIDTH 5 0
BBX 4 6 0 -2
ATTRIBUTES 0263
BITMAP
00
40
40
80
90
60
ENDCHAR
STARTCHAR Agrave
ENCODING 192
SWIDTH 720 0
DWIDTH 6 0
BBX 6 7 0 0
ATTRIBUTES 029b
BITMAP
00
30
30
48
78
88
84
ENDCHAR
STARTCHAR Aacute
ENCODING 193
SWIDTH 720 0
DWIDTH 6 0
BBX 6 7 0 0
ATTRIBUTES 029b
BITMAP
00
30
30
48
78
88
84
ENDCHAR
STARTCHAR Acircumflex
ENCODING 194
SWIDTH 720 0
DWIDTH 6 0
BBX 6 8 0 0
ATTRIBUTES 029b
BITMAP
00
00
30
30
48
78
88
84
ENDCHAR
STARTCHAR Atilde
ENCODING 195
SWIDTH 720 0
DWIDTH 6 0
BBX 6 7 0 0
ATTRIBUTES 029b
BITMAP
70
30
30
48
78
88
84
ENDCHAR
STARTCHAR Adiaeresis
ENCODING 196
SWIDTH 720 0
DWIDTH 6 0
BBX 6 7 0 0
ATTRIBUTES 029b
BITMAP
00
30
50
50
78
88
84
ENDCHAR
STARTCHAR Aring
ENCODING 197
SWIDTH 720 0
DWIDTH 6 0
BBX 6 7 0 0
ATTRIBUTES 029b
BITMAP
70
30
30
48
78
88
84
ENDCHAR
STARTCHAR AE
ENCODING 198
SWIDTH 960 0
DWIDTH 8 0
BBX 8 6 0 0
ATTRIBUTES 03e8
BITMAP
1f
28
3f
48
4f
8f
ENDCHAR
STARTCHAR Ccedilla
ENCODING 199
SWIDTH 720 0
DWIDTH 6 0
BBX 5 8 0 -2
ATTRIBUTES 02d4
BITMAP
70
88
80
80
88
70
20
20
ENDCHAR
STARTCHAR Egrave
ENCODING 200
SWIDTH 720 0
DWIDTH 6 0
BBX 4 7 1 0
ATTRIBUTES 029b
BITMAP
00
f0
80
f0
80
f0
f0
ENDCHAR
STARTCHAR Eacute
ENCODING 201
SWIDTH 720 0
DWIDTH 6 0
BBX 4 7 1 0
ATTRIBUTES 029b
BITMAP
00
f0
80
f0
80
f0
f0
ENDCHAR
STARTCHAR Ecircumflex
ENCODING 202
SWIDTH 720 0
DWIDTH 6 0
BBX 4 8 1 0
ATTRIBUTES 029b
BITMAP
00
00
f0
80
f0
80
f0
f0
ENDCHAR
STARTCHAR Ediaeresis
ENCODING 203
SWIDTH 720 0
DWIDTH 6 0
BBX 5 7 1 0
ATTRIBUTES 029b
BITMAP
00
f0
80
f0
80
f8
f8
ENDCHAR
STARTCHAR Igrave
ENCODING 204
SWIDTH 240 0
DWIDTH 2 0
BBX 2 7 0 0
ATTRIBUTES 0117
BITMAP
00
40
40
40
40
40
40
ENDCHAR
STARTCHAR Iacute
ENCODING 205
SWIDTH 240 0
DWIDTH 2 0
BBX 2 7 0 0
ATTRIBUTES 0117
BITMAP
00
80
80
80
80
80
80
ENDCHAR
STARTCHAR Icircumflex
ENCODING 206
SWIDTH 240 0
DWIDTH 2 0
BBX 3 7 0 0
ATTRIBUTES 0117
BITMAP
e0
40
40
40
40
40
40
ENDCHAR
STARTCHAR Idiaeresis
ENCODING 207
SWIDTH 240 0
DWIDTH 2 0
BBX 3 7 -1 0
ATTRIBUTES 0117
BITMAP
00
40
40
40
40
40
40
ENDCHAR
STARTCHAR ETH
ENCODING 208
SWIDTH 720 0
DWIDTH 6 0
BBX 6 5 0 0
ATTRIBUTES 02d4
BITMAP
70
4c
44
7c
78
ENDCHAR
STARTCHAR Ntilde
ENCODING 209
SWIDTH 720 0
DWIDTH 6 0
BBX 5 7 0 0
ATTRIBUTES 02d4
BITMAP
70
88
c8
a8
a8
98
88
ENDCHAR
STARTCHAR Ograve
ENCODING 210
SWIDTH 720 0
DWIDTH 6 0
BBX 6 7 0 0
ATTRIBUTES 030b
BITMAP
00
78
84
84
84
84
78
ENDCHAR
STARTCHAR Oacute
ENCODING 211
SWIDTH 720 0
DWIDTH 6 0
BBX 6 7 0 0
ATTRIBUTES 030b
BITMAP
00
78
84
84
84
84
78
ENDCHAR
STARTCHAR Ocircumflex
ENCODING 212
SWIDTH 720 0
DWIDTH 6 0
BBX 6 8 0 0
ATTRIBUTES 030b
BITMAP
00
00
78
84
84
84
84
78
ENDCHAR
STARTCHAR Otilde
ENCODING 213
SWIDTH 720 0
DWIDTH 6 0
BBX 6 8 0 0
ATTRIBUTES 030b
BITMAP
00
00
78
84
84
84
84
78
ENDCHAR
STARTCHAR Odiaeresis
ENCODING 214
SWIDTH 720 0
DWIDTH 6 0
BBX 6 7 0 0
ATTRIBUTES 030b
BITMAP
00
30
48
44
84
48
30
ENDCHAR
STARTCHAR multiply
ENCODING 215
SWIDTH 600 0
DWIDTH 5 0
BBX 4 4 0 1
ATTRIBUTES 0247
BITMAP
90
60
60
90
ENDCHAR
STARTCHAR Ooblique
ENCODING 216
SWIDTH 720 0
DWIDTH 6 0
BBX 6 6 0 0
ATTRIBUTES 030b
BITMAP
7c
8c
94
a4
c4
f8
ENDCHAR
STARTCHAR Ugrave
ENCODING 217
SWIDTH 720 0
DWIDTH 6 0
BBX 5 7 0 0
ATTRIBUTES 02d4
BITMAP
20
88
88
88
88
88
70
ENDCHAR
STARTCHAR Uacute
ENCODING 218
SWIDTH 720 0
DWIDTH 6 0
BBX 5 7 0 0
ATTRIBUTES 02d4
BITMAP
20
88
88
88
88
88
70
ENDCHAR
STARTCHAR Ucircumflex
ENCODING 219
SWIDTH 720 0
DWIDTH 6 0
BBX 5 7 0 0
ATTRIBUTES 02d4
BITMAP
70
88
88
88
88
88
70
ENDCHAR
STARTCHAR Udiaeresis
ENCODING 220
SWIDTH 720 0
DWIDTH 6 0
BBX 4 7 1 0
ATTRIBUTES 02d4
BITMAP
a0
90
90
90
90
90
f0
ENDCHAR
STARTCHAR Yacute
ENCODING 221
SWIDTH 720 0
DWIDTH 6 0
BBX 5 7 0 0
ATTRIBUTES 029b
BITMAP
20
88
50
50
20
20
20
ENDCHAR
STARTCHAR THORN
ENCODING 222
SWIDTH 720 0
DWIDTH 6 0
BBX 4 6 1 0
ATTRIBUTES 029b
BITMAP
80
e0
90
90
e0
80
ENDCHAR
STARTCHAR ssharp
ENCODING 223
SWIDTH 600 0
DWIDTH 5 0
BBX 4 6 0 0
ATTRIBUTES 0263
BITMAP
e0
a0
a0
a0
90
b0
ENDCHAR
STARTCHAR agrave
ENCODING 224
SWIDTH 600 0
DWIDTH 5 0
BBX 4 6 0 0
ATTRIBUTES 022c
BITMAP
40
00
f0
10
f0
f0
ENDCHAR
STARTCHAR aacute
ENCODING 225
SWIDTH 600 0
DWIDTH 5 0
BBX 4 6 0 0
ATTRIBUTES 022c
BITMAP
20
00
f0
10
f0
f0
ENDCHAR
STARTCHAR acircumflex
ENCODING 226
SWIDTH 600 0
DWIDTH 5 0
BBX 4 6 0 0
ATTRIBUTES 022c
BITMAP
60
00
f0
10
f0
f0
ENDCHAR
STARTCHAR atilde
ENCODING 227
SWIDTH 600 0
DWIDTH 5 0
BBX 4 6 0 0
ATTRIBUTES 022c
BITMAP
60
00
f0
10
f0
f0
ENDCHAR
STARTCHAR adiaeresis
ENCODING 228
SWIDTH 600 0
DWIDTH 5 0
BBX 5 6 0 0
ATTRIBUTES 022c
BITMAP
50
00
70
10
f0
78
ENDCHAR
STARTCHAR aring
ENCODING 229
SWIDTH 600 0
DWIDTH 5 0
BBX 4 6 0 0
ATTRIBUTES 022c
BITMAP
60
00
f0
10
f0
f0
ENDCHAR
STARTCHAR ae
ENCODING 230
SWIDTH 840 0
DWIDTH 7 0
BBX 7 5 0 0
ATTRIBUTES 0378
BITMAP
68
96
7e
b6
48
ENDCHAR
STARTCHAR ccedilla
ENCODING 231
SWIDTH 480 0
DWIDTH 4 0
BBX 4 6 0 -2
ATTRIBUTES 01f4
BITMAP
f0
80
90
60
60
40
ENDCHAR
STARTCHAR egrave
ENCODING 232
SWIDTH 600 0
DWIDTH 5 0
BBX 4 6 0 0
ATTRIBUTES 022c
BITMAP
40
00
f0
f0
b0
40
ENDCHAR
STARTCHAR eacute
ENCODING 233
SWIDTH 600 0
DWIDTH 5 0
BBX 4 6 0 0
ATTRIBUTES 022c
BITMAP
20
00
f0
f0
b0
40
ENDCHAR
STARTCHAR ecircumflex
ENCODING 234
SWIDTH 600 0
DWIDTH 5 0
BBX 4 6 0 0
ATTRIBUTES 022c
BITMAP
60
00
f0
f0
b0
40
ENDCHAR
STARTCHAR ediaeresis
ENCODING 235
SWIDTH 600 0
DWIDTH 5 0
BBX 5 6 0 0
ATTRIBUTES 022c
BITMAP
50
00
70
f8
58
60
ENDCHAR
STARTCHAR igrave
ENCODING 236
SWIDTH 240 0
DWIDTH 2 0
BBX 2 6 0 0
ATTRIBUTES 0117
BITMAP
40
00
40
40
40
40
ENDCHAR
STARTCHAR iacute
ENCODING 237
SWIDTH 240 0
DWIDTH 2 0
BBX 2 6 0 0
ATTRIBUTES 0117
BITMAP
80
00
80
80
80
80
ENDCHAR
STARTCHAR icircumflex
ENCODING 238
SWIDTH 240 0
DWIDTH 2 0
BBX 3 6 0 0
ATTRIBUTES 0117
BITMAP
c0
00
40
40
40
40
ENDCHAR
STARTCHAR idiaeresis
ENCODING 239
SWIDTH 240 0
DWIDTH 2 0
BBX 3 6 -1 0
ATTRIBUTES 0117
BITMAP
a0
00
40
40
40
40
ENDCHAR
STARTCHAR eth
ENCODING 240
SWIDTH 600 0
DWIDTH 5 0
BBX 4 6 0 0
ATTRIBUTES 022c
BITMAP
20
e0
90
90
90
60
ENDCHAR
STARTCHAR ntilde
ENCODING 241
SWIDTH 600 0
DWIDTH 5 0
BBX 4 6 0 0
ATTRIBUTES 022c
BITMAP
60
00
e0
90
90
90
ENDCHAR
STARTCHAR ograve
ENCODING 242
SWIDTH 600 0
DWIDTH 5 0
BBX 4 6 0 0
ATTRIBUTES 022c
BITMAP
40
00
60
90
90
60
ENDCHAR
STARTCHAR oacute
ENCODING 243
SWIDTH 600 0
DWIDTH 5 0
BBX 4 6 0 0
ATTRIBUTES 022c
BITMAP
20
00
60
90
90
60
ENDCHAR
STARTCHAR ocircumflex
ENCODING 244
SWIDTH 600 0
DWIDTH 5 0
BBX 4 6 0 0
ATTRIBUTES 022c
BITMAP
60
00
60
90
90
60
ENDCHAR
STARTCHAR otilde
ENCODING 245
SWIDTH 600 0
DWIDTH 5 0
BBX 4 6 0 0
ATTRIBUTES 022c
BITMAP
60
00
60
90
90
60
ENDCHAR
STARTCHAR odiaeresis
ENCODING 246
SWIDTH 600 0
DWIDTH 5 0
BBX 5 6 0 0
ATTRIBUTES 022c
BITMAP
50
00
70
48
48
70
ENDCHAR
STARTCHAR division
ENCODING 247
SWIDTH 600 0
DWIDTH 5 0
BBX 4 3 0 1
ATTRIBUTES 0223
BITMAP
00
00
20
ENDCHAR
STARTCHAR oslash
ENCODING 248
SWIDTH 600 0
DWIDTH 5 0
BBX 4 4 0 0
ATTRIBUTES 0263
BITMAP
f0
b0
d0
e0
ENDCHAR
STARTCHAR ugrave
ENCODING 249
SWIDTH 600 0
DWIDTH 5 0
BBX 4 6 0 0
ATTRIBUTES 022c
BITMAP
20
00
90
90
90
70
ENDCHAR
STARTCHAR uacute
ENCODING 250
SWIDTH 600 0
DWIDTH 5 0
BBX 4 6 0 0
ATTRIBUTES 022c
BITMAP
20
00
90
90
90
70
ENDCHAR
STARTCHAR ucircumflex
ENCODING 251
SWIDTH 600 0
DWIDTH 5 0
BBX 4 6 0 0
ATTRIBUTES 022c
BITMAP
60
00
90
90
90
70
ENDCHAR
STARTCHAR udiaeresis
ENCODING 252
SWIDTH 600 0
DWIDTH 5 0
BBX 4 6 0 0
ATTRIBUTES 022c
BITMAP
60
00
90
90
90
70
ENDCHAR
STARTCHAR yacute
ENCODING 253
SWIDTH 480 0
DWIDTH 4 0
BBX 4 8 0 -2
ATTRIBUTES 01f4
BITMAP
20
00
90
50
60
60
40
c0
ENDCHAR
STARTCHAR thorn
ENCODING 254
SWIDTH 600 0
DWIDTH 5 0
BBX 4 8 0 -2
ATTRIBUTES 022c
BITMAP
80
80
f0
90
90
e0
80
80
ENDCHAR
STARTCHAR ydiaeresis
ENCODING 255
SWIDTH 480 0
DWIDTH 4 0
BBX 4 8 0 -2
ATTRIBUTES 01f4
BITMAP
50
00
90
50
50
20
20
c0
ENDCHAR
ENDFONT
